<svg xmlns="http://www.w3.org/2000/svg" width="134" height="35.349" viewBox="0 0 134 35.349">
  <path id="accenture-4" d="M77.988,9.921,85.7,7.054,77.988,4.02V0l13.2,5.328v3.28l-13.2,5.333ZM5.087,35.344C2.3,35.344,0,33.95,0,30.836V30.67c0-3.773,3.28-5.087,7.3-5.087H9.187v-.74c0-1.56-.654-2.46-2.294-2.46A2.039,2.039,0,0,0,4.6,24.35H.493C.82,20.9,3.527,19.264,7.134,19.264c3.688,0,6.394,1.56,6.394,5.414V35.012H9.348V33.205a5.042,5.042,0,0,1-4.261,2.139Zm4.1-5.494V28.376H7.467c-2.133,0-3.2.574-3.2,1.967v.166c0,1.067.654,1.806,2.133,1.806A2.5,2.5,0,0,0,9.187,29.85Zm14.1,5.494c-4.267,0-7.381-2.626-7.381-7.874v-.241c0-5.253,3.28-8.04,7.381-8.04,3.527,0,6.394,1.806,6.727,5.821h-4.1c-.247-1.474-1.067-2.46-2.541-2.46-1.806,0-3.114,1.474-3.114,4.508v.493c0,3.114,1.147,4.508,3.114,4.508a2.867,2.867,0,0,0,2.787-2.787H30.1C29.85,32.8,27.47,35.344,23.289,35.344Zm16.075,0c-4.267,0-7.381-2.626-7.381-7.874v-.241c0-5.247,3.28-8.035,7.381-8.035,3.527,0,6.394,1.806,6.727,5.821h-4.1c-.247-1.474-1.067-2.46-2.541-2.46-1.806,0-3.114,1.474-3.114,4.508v.493c0,3.114,1.147,4.508,3.114,4.508a2.867,2.867,0,0,0,2.787-2.787h3.934C45.924,32.8,43.545,35.344,39.364,35.344Zm16.155,0c-4.427,0-7.461-2.626-7.461-7.788v-.327c0-5.167,3.2-8.035,7.381-8.035,3.854,0,7.054,2.133,7.054,7.3v1.887H52.485c.166,2.787,1.394,3.854,3.2,3.854a2.768,2.768,0,0,0,2.868-1.967h4.02c-.574,2.862-2.953,5.076-7.054,5.076ZM52.485,25.5h5.821c-.08-2.294-1.147-3.28-2.868-3.28C54.045,22.308,52.812,23.043,52.485,25.5Zm12.628-5.9H69.46V21.9a4.941,4.941,0,0,1,4.674-2.626c2.787,0,4.674,1.721,4.674,5.414V35.017H74.461V25.342c0-1.806-.74-2.626-2.294-2.626a2.585,2.585,0,0,0-2.707,2.868v9.428H65.113Zm21.649-4.674V19.6h2.953v3.2H86.762v7.3c0,1.147.493,1.721,1.56,1.721a3.636,3.636,0,0,0,1.474-.247v3.361a8.36,8.36,0,0,1-2.46.327c-3.361,0-4.92-1.56-4.92-4.674V22.8h-1.8V19.6h1.806V16.729Zm19.189,20.089H101.6V32.723A4.77,4.77,0,0,1,97.1,35.349c-2.787,0-4.84-1.721-4.84-5.328V19.6H96.6v9.841c0,1.806.74,2.626,2.214,2.626a2.63,2.63,0,0,0,2.707-2.868V19.682h4.347V35.017Zm3.2-15.415H113.5v2.868a4.644,4.644,0,0,1,4.674-3.034V23.7c-2.953,0-4.674.9-4.674,3.446V35.1h-4.347Zm17.8,15.742c-4.427,0-7.461-2.626-7.461-7.788v-.327c0-5.167,3.2-8.035,7.381-8.035,3.854,0,7.054,2.133,7.054,7.3v1.887H123.912c.166,2.787,1.394,3.854,3.2,3.854a2.768,2.768,0,0,0,2.868-1.967H134c-.654,2.862-3.034,5.076-7.054,5.076ZM123.832,25.5h5.821c-.08-2.294-1.147-3.28-2.868-3.28C125.472,22.308,124.239,23.043,123.832,25.5Z" transform="translate(0)" fill="#8989a2"/>
</svg>
