<svg xmlns="http://www.w3.org/2000/svg" width="130.425" height="40.705" viewBox="0 0 130.425 40.705">
  <path id="airbnb" d="M398.514,450.226a2.649,2.649,0,1,1-2.649-2.648A2.643,2.643,0,0,1,398.514,450.226Zm-10.92,5.338v.652a5.088,5.088,0,0,0-3.952-1.631,8.069,8.069,0,0,0,0,16.135,4.947,4.947,0,0,0,3.952-1.671v.692a.557.557,0,0,0,.571.57h3.3V454.991h-3.3a.586.586,0,0,0-.571.572Zm0,9.819a4.047,4.047,0,0,1-3.3,1.671,4.405,4.405,0,1,1,0-8.8,4.159,4.159,0,0,1,3.3,1.671Zm6.316-10.39h3.911v15.32h-3.911V454.992Zm58.428-.408a5.091,5.091,0,0,0-3.953,1.631v-8.6h-3.911v22.695h3.3a.582.582,0,0,0,.57-.571v-.692a5.046,5.046,0,0,0,3.952,1.671,8.07,8.07,0,0,0,.042-16.136Zm-.652,12.428a3.989,3.989,0,0,1-3.3-1.671v-5.46a4.422,4.422,0,0,1,3.3-1.671,4.4,4.4,0,1,1,0,8.8Zm-9.249-5.785v9.127h-3.912v-8.679c0-2.526-.815-3.545-3.014-3.545a4.379,4.379,0,0,0-3.179,1.508v10.675h-3.91V454.993h3.1a.583.583,0,0,1,.571.571v.652a5.612,5.612,0,0,1,4.155-1.631,6.345,6.345,0,0,1,4.279,1.467c1.385,1.141,1.915,2.607,1.915,5.175Zm-23.511-6.642a5.09,5.09,0,0,0-3.952,1.631v-8.6h-3.911v22.695h3.3a.583.583,0,0,0,.571-.571v-.692a5.046,5.046,0,0,0,3.952,1.671,8.07,8.07,0,0,0,.041-16.136Zm-.652,12.428a3.988,3.988,0,0,1-3.3-1.671v-5.46a4.422,4.422,0,0,1,3.3-1.671,4.405,4.405,0,1,1,0,8.8Zm-10.593-12.428a6.221,6.221,0,0,1,1.793.2v3.626s-3.26-1.1-5.3,1.223v10.716h-3.912V454.992h3.3a.582.582,0,0,1,.57.571v.652A5.355,5.355,0,0,1,407.681,454.585Zm-40.622,14.343c-.2-.489-.407-1.018-.611-1.467-.326-.733-.652-1.426-.937-2.078l-.041-.041c-2.812-6.112-5.826-12.3-9-18.416l-.122-.245q-.5-.951-.977-1.915a11.727,11.727,0,0,0-1.467-2.241A6.581,6.581,0,0,0,348.725,440a6.838,6.838,0,0,0-5.215,2.445,13.972,13.972,0,0,0-1.467,2.241q-.477.963-.977,1.915l-.123.245c-3.137,6.111-6.193,12.3-9,18.416l-.041.081c-.285.653-.611,1.345-.937,2.078q-.305.673-.611,1.467a9.142,9.142,0,0,0-.489,4.4,8.659,8.659,0,0,0,5.3,6.764,8.363,8.363,0,0,0,3.3.652,9.2,9.2,0,0,0,1.06-.082,10.762,10.762,0,0,0,4.075-1.385A20.634,20.634,0,0,0,348.644,475a21.41,21.41,0,0,0,5.052,4.237,10.765,10.765,0,0,0,4.074,1.385,9.111,9.111,0,0,0,1.06.082,8.218,8.218,0,0,0,3.3-.652,8.644,8.644,0,0,0,5.3-6.764,7.72,7.72,0,0,0-.369-4.359Zm-18.375,2.119a20.092,20.092,0,0,1-4.115-7.578,6.571,6.571,0,0,1-.122-2.486,3.946,3.946,0,0,1,.652-1.712,4.327,4.327,0,0,1,3.586-1.793,4.173,4.173,0,0,1,3.586,1.793,3.964,3.964,0,0,1,.652,1.712,6.558,6.558,0,0,1-.122,2.486A20.747,20.747,0,0,1,348.684,471.046Zm16.256,1.915a6.055,6.055,0,0,1-3.707,4.768,6.17,6.17,0,0,1-3.1.407,8.024,8.024,0,0,1-3.1-1.059,19.038,19.038,0,0,1-4.645-3.953,22.984,22.984,0,0,0,4.93-9,10.194,10.194,0,0,0,.2-3.464,6.606,6.606,0,0,0-1.1-2.771,6.866,6.866,0,0,0-5.745-2.893,6.971,6.971,0,0,0-5.745,2.893,6.612,6.612,0,0,0-1.1,2.771,8.464,8.464,0,0,0,.2,3.464c.611,2.689,2.281,5.745,4.93,9.045a18.3,18.3,0,0,1-4.645,3.953,8,8,0,0,1-3.1,1.059,6.519,6.519,0,0,1-3.1-.407A6.055,6.055,0,0,1,332.427,473a6.74,6.74,0,0,1,.367-3.178c.122-.408.326-.815.53-1.3.285-.652.611-1.345.937-2.038l.041-.081c2.811-6.071,5.826-12.264,8.963-18.294l.122-.245c.326-.611.652-1.263.978-1.874a8.944,8.944,0,0,1,1.141-1.793,4.278,4.278,0,0,1,6.519,0,9.017,9.017,0,0,1,1.141,1.793c.326.611.652,1.263.978,1.874l.123.245q4.634,9.082,8.923,18.335v.041c.326.653.611,1.386.937,2.038.2.488.407.9.53,1.3a6.886,6.886,0,0,1,.284,3.137Z" transform="translate(-329.776 -439.998)" fill="#8989a2"/>
</svg>
