<svg id="edit-brightness" xmlns="http://www.w3.org/2000/svg" width="16" height="16" viewBox="0 0 16 16">
  <path id="Path_603" data-name="Path 603" d="M13,6a.75.75,0,0,1-.75-.75,1.5,1.5,0,0,0-1.5-1.5.75.75,0,0,1,0-1.5,1.5,1.5,0,0,0,1.5-1.5.75.75,0,0,1,1.5,0,1.5,1.5,0,0,0,1.5,1.5.75.75,0,0,1,0,1.5,1.5,1.5,0,0,0-1.5,1.5A.75.75,0,0,1,13,6Z" fill="#722ed1"/>
  <path id="Path_604" data-name="Path 604" d="M6,16a1,1,0,0,1-1-1,4,4,0,0,0-4-4A1,1,0,1,1,1,9,4,4,0,0,0,5,5,1,1,0,0,1,7,5a4,4,0,0,0,4,4,1,1,0,0,1,0,2,4,4,0,0,0-4,4,1,1,0,0,1-1,1Z" fill="#722ed1"/>
</svg>
