<svg id="facebook-icon" xmlns="http://www.w3.org/2000/svg" width="16" height="16" viewBox="0 0 16 16">
  <path id="Path_687" data-name="Path 687" d="M15.117,16A.883.883,0,0,0,16,15.117V.883A.883.883,0,0,0,15.117,0H.883A.883.883,0,0,0,0,.883V15.117A.883.883,0,0,0,.883,16H15.117Z" fill="#485a96"/>
  <path id="Path_688" data-name="Path 688" d="M112.353,53.893V47.7h2.08l.311-2.415h-2.391V43.741c0-.7.194-1.176,1.2-1.176h1.279v-2.16a17.111,17.111,0,0,0-1.863-.1,2.91,2.91,0,0,0-3.106,3.192v1.781h-2.085V47.7h2.085v6.2h2.494Z" transform="translate(-101.313 -37.893)" fill="#fff"/>
</svg>
