<svg id="instagram-2016" xmlns="http://www.w3.org/2000/svg" xmlns:xlink="http://www.w3.org/1999/xlink" width="15.999" height="16" viewBox="0 0 15.999 16">
  <defs>
    <radialGradient id="radial-gradient" cx="0.133" cy="1.005" r="1.305" gradientTransform="translate(0)" gradientUnits="objectBoundingBox">
      <stop offset="0.09" stop-color="#fa8f21"/>
      <stop offset="0.78" stop-color="#d82d7e"/>
    </radialGradient>
    <radialGradient id="radial-gradient-2" cx="0.606" cy="1.05" r="1.029" gradientTransform="translate(0)" gradientUnits="objectBoundingBox">
      <stop offset="0.64" stop-color="#8c3aaa" stop-opacity="0"/>
      <stop offset="1" stop-color="#8c3aaa"/>
    </radialGradient>
  </defs>
  <path id="Path_692" data-name="Path 692" d="M5.334,8A2.667,2.667,0,1,1,8,10.667,2.667,2.667,0,0,1,5.334,8M3.892,8A4.108,4.108,0,1,0,8,3.892,4.108,4.108,0,0,0,3.892,8m7.418-4.271a.96.96,0,1,0,.96-.96h0a.96.96,0,0,0-.96.96M4.768,14.512a4.422,4.422,0,0,1-1.486-.275,2.486,2.486,0,0,1-.92-.6,2.468,2.468,0,0,1-.6-.92,4.417,4.417,0,0,1-.275-1.486c-.039-.843-.047-1.1-.047-3.233s.008-2.389.047-3.233a4.451,4.451,0,0,1,.275-1.486,2.486,2.486,0,0,1,.6-.92,2.466,2.466,0,0,1,.92-.6,4.417,4.417,0,0,1,1.486-.275c.843-.039,1.1-.047,3.232-.047s2.389.008,3.233.047a4.451,4.451,0,0,1,1.486.275,2.478,2.478,0,0,1,.92.6,2.478,2.478,0,0,1,.6.92,4.417,4.417,0,0,1,.275,1.486c.039.844.047,1.1.047,3.233s-.008,2.389-.047,3.233a4.438,4.438,0,0,1-.275,1.486,2.649,2.649,0,0,1-1.519,1.518,4.417,4.417,0,0,1-1.486.275c-.843.039-1.1.047-3.233.047s-2.389-.008-3.232-.047M4.7.048A5.866,5.866,0,0,0,2.76.42a3.924,3.924,0,0,0-1.417.923A3.909,3.909,0,0,0,.42,2.76,5.868,5.868,0,0,0,.048,4.7C.009,5.555,0,5.827,0,8s.009,2.445.048,3.3A5.867,5.867,0,0,0,.42,13.24a3.911,3.911,0,0,0,.923,1.417,3.933,3.933,0,0,0,1.417.923,5.871,5.871,0,0,0,1.942.372C5.555,15.99,5.827,16,8,16s2.445-.009,3.3-.048a5.867,5.867,0,0,0,1.942-.372,4.09,4.09,0,0,0,2.34-2.34,5.851,5.851,0,0,0,.372-1.942C15.99,10.445,16,10.173,16,8s-.009-2.445-.048-3.3A5.866,5.866,0,0,0,15.58,2.76a3.934,3.934,0,0,0-.923-1.417A3.915,3.915,0,0,0,13.241.42,5.858,5.858,0,0,0,11.3.048C10.446.01,10.173,0,8,0S5.555.009,4.7.048" fill="url(#radial-gradient)"/>
  <path id="Path_693" data-name="Path 693" d="M5.334,8A2.667,2.667,0,1,1,8,10.667,2.667,2.667,0,0,1,5.334,8M3.892,8A4.108,4.108,0,1,0,8,3.892,4.108,4.108,0,0,0,3.892,8m7.418-4.271a.96.96,0,1,0,.96-.96h0a.96.96,0,0,0-.96.96M4.768,14.512a4.422,4.422,0,0,1-1.486-.275,2.486,2.486,0,0,1-.92-.6,2.468,2.468,0,0,1-.6-.92,4.417,4.417,0,0,1-.275-1.486c-.039-.843-.047-1.1-.047-3.233s.008-2.389.047-3.233a4.451,4.451,0,0,1,.275-1.486,2.486,2.486,0,0,1,.6-.92,2.466,2.466,0,0,1,.92-.6,4.417,4.417,0,0,1,1.486-.275c.843-.039,1.1-.047,3.232-.047s2.389.008,3.233.047a4.451,4.451,0,0,1,1.486.275,2.478,2.478,0,0,1,.92.6,2.478,2.478,0,0,1,.6.92,4.417,4.417,0,0,1,.275,1.486c.039.844.047,1.1.047,3.233s-.008,2.389-.047,3.233a4.438,4.438,0,0,1-.275,1.486,2.649,2.649,0,0,1-1.519,1.518,4.417,4.417,0,0,1-1.486.275c-.843.039-1.1.047-3.233.047s-2.389-.008-3.232-.047M4.7.048A5.866,5.866,0,0,0,2.76.42a3.924,3.924,0,0,0-1.417.923A3.909,3.909,0,0,0,.42,2.76,5.868,5.868,0,0,0,.048,4.7C.009,5.555,0,5.827,0,8s.009,2.445.048,3.3A5.867,5.867,0,0,0,.42,13.24a3.911,3.911,0,0,0,.923,1.417,3.933,3.933,0,0,0,1.417.923,5.871,5.871,0,0,0,1.942.372C5.555,15.99,5.827,16,8,16s2.445-.009,3.3-.048a5.867,5.867,0,0,0,1.942-.372,4.09,4.09,0,0,0,2.34-2.34,5.851,5.851,0,0,0,.372-1.942C15.99,10.445,16,10.173,16,8s-.009-2.445-.048-3.3A5.866,5.866,0,0,0,15.58,2.76a3.934,3.934,0,0,0-.923-1.417A3.915,3.915,0,0,0,13.241.42,5.858,5.858,0,0,0,11.3.048C10.446.01,10.173,0,8,0S5.555.009,4.7.048" fill="url(#radial-gradient-2)"/>
</svg>
