<svg xmlns="http://www.w3.org/2000/svg" width="85.231" height="29.586" viewBox="0 0 85.231 29.586">
  <g id="Mine" transform="translate(-1.769 -0.653)">
    <g id="Group_26" data-name="Group 26" transform="translate(4.097 9.53)">
      <path id="Fill-1" d="M28.28,43.73a1.3,1.3,0,0,0,.224,1.287,1.454,1.454,0,0,0,1.2.264,5.707,5.707,0,0,1,2.509.017,1.58,1.58,0,0,1,.693,2.315,6.368,6.368,0,0,1-1.21,1.454,33.654,33.654,0,0,0-3.944,5.669c-.493.8-1.146,1.866-2.184,1.972a1.877,1.877,0,0,1-2.1-1.449c-.141-.979.806-1.913,1.452-2.556.454-.454.878-.922,1.3-1.41.493-.564.959-1.126,1.4-1.725.515-.7,1.371-1.846.739-2.711-.458-.636-1.432-.525-2.068-.271a5.137,5.137,0,0,0-2.019,1.706,25.479,25.479,0,0,0-1.526,2.566,5.478,5.478,0,0,1-1.513,1.878,1.546,1.546,0,0,1-2.068-.357,2.294,2.294,0,0,1,.246-2.386,9.121,9.121,0,0,1,1.383-1.607c.781-.8,1.573-1.595,2.332-2.418.38-.422.757-.838,1.1-1.272.311-.4.779-.924.641-1.479-.261-1.045-1.913-.666-2.588-.335a8.947,8.947,0,0,0-2.485,2.11,23.286,23.286,0,0,0-2.058,2.768c-1.306,1.947-2.512,3.974-3.86,5.891-.562.8-1.232,1.767-2.26,1.972a1.79,1.79,0,0,1-2.152-1.592,3.639,3.639,0,0,1,.937-2.465q.7-.91,1.43-1.792c1.3-1.573,2.61-3.148,3.944-4.683,1.131-1.316,2.218-2.662,3.281-4.045.6-.794,1.213-1.575,1.765-2.4a8.283,8.283,0,0,1,1.8-2.154,1.921,1.921,0,0,1,2.236-.192c.833.646.422,1.844.076,2.628s-.678,1.77.316,2.147c.7.271,1.479.054,2.164.4a1.91,1.91,0,0,1,.875,2.258" transform="translate(-9.444 -36.01)" fill="#8989a2" fill-rule="evenodd"/>
    </g>
    <g id="Group_27" data-name="Group 27" transform="translate(1.769 0.653)">
      <path id="Fill-4" d="M7.3,16.659a73.669,73.669,0,0,1,5.273-6.776c1.595-1.817,3.278-3.557,4.93-5.329a3.646,3.646,0,0,0,1.131-2.366A1.578,1.578,0,0,0,17.009.5a3.257,3.257,0,0,0-2.251,1.553C14.12,2.87,13.573,3.752,13,4.61c-.547.811-1.163,1.568-1.745,2.354-.641.875-1.262,1.77-1.972,2.583-.552.624-1.26,1.743-2.218,1.725a.853.853,0,0,1-.769-.572,1.269,1.269,0,0,1,.246-1.232A14.161,14.161,0,0,1,8.034,7.7,6.321,6.321,0,0,0,9.459,6.03a1.868,1.868,0,0,0-.288-1.937A1.146,1.146,0,0,0,8.01,3.708c-.493.143-.833.638-1.232.912-.266.18-.821.343-.986-.054s.328-.786.545-1.008C6.937,2.939,8,2.3,8.061,1.352A1.344,1.344,0,0,0,6.2.077,4.433,4.433,0,0,0,4.117,1.891c-.466.661-1.277,1.819-.969,2.672a1.077,1.077,0,0,0,.915.666c.424.067,1.011-.165,1.383.084.845.567-.19,1.925-.572,2.465A18.618,18.618,0,0,1,2.9,10.095c-.754.759-1.592,1.479-2.27,2.3a1.994,1.994,0,0,0-.37,2.379,1.481,1.481,0,0,0,2.361.017,22.682,22.682,0,0,1,1.809-2.371,1.256,1.256,0,0,1,1.191-.357.853.853,0,0,1,.493,1.114,6.364,6.364,0,0,1-1.79,2.4c-.7.739-1.479,1.375-2.162,2.108A3.35,3.35,0,0,0,1.13,20.147a1.459,1.459,0,0,0,.72,1.139,2.143,2.143,0,0,0,2.384-.611,18.406,18.406,0,0,0,2.428-3.14Z" transform="translate(-0.001 0.002)" fill="#8989a2" fill-rule="evenodd"/>
    </g>
    <path id="Fill-7" d="M79.168,5.481c-.493.513-1.04.986-1.541,1.479s-1.232,1.252-1,2.021a1.061,1.061,0,0,0,1.725.343c.569-.493,1.05-1.274,1.915-1.048a1.536,1.536,0,0,1,.887,1.908,4.074,4.074,0,0,1-1.326,1.856,11.687,11.687,0,0,0-1.573,2.006c-.355.574-.725,1.171-1.479,1.232a1.484,1.484,0,0,1-1.449-1.2,2.641,2.641,0,0,1,.823-2.218c.4-.493.89-1.245.291-1.8-.651-.6-1.546-.19-2.218.1a1.419,1.419,0,0,1-1.95-.515A2,2,0,0,1,72.589,7.6c.658-.947,1.536-1.725,2.218-2.667.87-1.163,1.457-3.044,3.214-2.906A2.048,2.048,0,0,1,79.679,3.26a2.14,2.14,0,0,1-.51,2.218" transform="translate(-52.558 -0.869)" fill="#8989a2" fill-rule="evenodd"/>
    <path id="Fill-9" d="M130.66,36.5h3.148V22.328L139.5,36.5h1.129l5.588-14.169V36.5h3.49V17.739h-4.619l-4.826,12.818-4.93-12.806H130.66Zm21.08,0h3.175V22.777H151.74Zm1.548-15.978a1.831,1.831,0,1,0-1.325-.509A1.824,1.824,0,0,0,153.288,20.522ZM156.946,36.5h3.175V28.417a3.041,3.041,0,0,1,3.227-3.278c1.888,0,2.729.944,2.729,3.017V36.5h3.175V27.872c0-3.779-1.942-5.379-4.7-5.379a4.74,4.74,0,0,0-4.437,2.465V22.777h-3.17Zm20.385.261c3.515,0,5.849-1.575,6.3-4.459h-3.064c-.247,1.336-1.232,2.1-3.148,2.1-2.361,0-3.673-1.479-3.779-4.067h10.047v-.917c0-4.908-3.069-6.927-6.48-6.927-3.907,0-6.821,2.832-6.821,7.084v.21a6.576,6.576,0,0,0,6.954,6.978Zm-3.648-8.553c.32-2.125,1.607-3.414,3.52-3.414,1.972,0,3.175,1.048,3.333,3.409Z" transform="translate(-96.684 -12.062)" fill="#8989a2" fill-rule="evenodd"/>
  </g>
</svg>
