<?xml version="1.0" encoding="utf-8"?>
<!-- Generator: Adobe Illustrator 26.0.0, SVG Export Plug-In . SVG Version: 6.00 Build 0)  -->
<svg version="1.1" id="Layer_1" xmlns="http://www.w3.org/2000/svg" xmlns:xlink="http://www.w3.org/1999/xlink" x="0px" y="0px"
	 viewBox="0 0 414 471" style="enable-background:new 0 0 414 471;" xml:space="preserve">
<style type="text/css">
	.st0{fill:none;}
	.st1{fill:none;stroke:#F9F0FF;}
</style>
<g id="Group_29" transform="translate(-202 -1535)">
	<g id="Concentric_circles" transform="translate(208 1585.143)">
		<g id="Ellipse_15" transform="translate(48 47.857)">
			<ellipse class="st0" cx="153" cy="146.5" rx="152" ry="152.5"/>
			<ellipse class="st1" cx="153" cy="146.5" rx="151.5" ry="152"/>
		</g>
		<g id="Ellipse_17" transform="translate(0 -0.143)">
			<circle class="st0" cx="201" cy="194" r="200"/>
			<circle class="st1" cx="201" cy="194" r="199.5"/>
		</g>
		<g id="Ellipse_16" transform="translate(95 94.857)">
			<circle class="st0" cx="106" cy="99" r="105"/>
			<circle class="st1" cx="106" cy="99" r="104.5"/>
		</g>
	</g>
	<g id="Logos" transform="translate(246.095 1551.81)">
		<g id="Group_7" transform="translate(123.082 -2.81)">
			
				<image style="overflow:visible;" width="500" height="500" xlink:href="cl-3.png"  transform="matrix(0.154 0 0 0.1644 -0.177 -10.0001)">
			</image>
		</g>
		<g id="Group_8" transform="translate(-22.095 234.19)">
			
				<image style="overflow:visible;" width="1200" height="1200" xlink:href="cl-4.png"  transform="matrix(6.670620e-02 0 0 6.900000e-02 -12 -17.0001)">
			</image>
		</g>
		<g id="Group_12" transform="translate(212.747 320.19)">
			
				<image style="overflow:visible;" width="599" height="416" xlink:href="cl-6.png"  transform="matrix(0.1554 0 0 0.1731 -7.842 -6.0001)">
			</image>
		</g>
		
			<image style="overflow:visible;" width="500" height="500" xlink:href="main.png"  transform="matrix(0.3067 0 0 0.3378 86.905 141.1899)">
		</image>
		<g id="Group_6" transform="translate(240.237 100.19)">
			
				<image style="overflow:visible;" width="499" height="500" xlink:href="cl-1.png"  transform="matrix(0.1936 0 0 0.1779 -16.332 -24.0001)">
			</image>
		</g>
		<g id="Group_9" transform="translate(43.463 361.19)">
			
				<image style="overflow:visible;" width="1890" height="2362" xlink:href="cl-5.png"  transform="matrix(4.498307e-02 0 0 3.843348e-02 -4.558 -18.0001)">
			</image>
		</g>
		<g id="Group_10" transform="translate(276.237 216.19)">
			
				<image style="overflow:visible;" width="1200" height="1200" xlink:href="../Code/Portfolio Designs/ahmed-gendia/Clients/ÙAG-logos_black.png"  transform="matrix(7.379083e-02 0 0 6.664990e-02 -8.832 -13.99)">
			</image>
		</g>
		
			<image style="overflow:visible;" width="50" height="50" xlink:href="OrangeLogo.png"  transform="matrix(1.0673 0 0 1.05 -20.095 70.1899)">
		</image>
	</g>
</g>
</svg>
