<svg xmlns="http://www.w3.org/2000/svg" width="63.436" height="56.44" viewBox="0 0 63.436 56.44">
  <g id="react" transform="translate(-4.822 -4.639)">
    <path id="Path_684" data-name="Path 684" d="M67.4,32.808q-1.013-.347-2.042-.643.171-.693.316-1.393c1.546-7.5.535-13.549-2.916-15.539-3.309-1.909-8.721.081-14.187,4.838q-.808.7-1.579,1.449-.517-.5-1.051-.971c-5.729-5.087-11.471-7.23-14.919-5.234-3.306,1.914-4.285,7.6-2.894,14.708q.208,1.056.469,2.1c-.812.231-1.6.477-2.348.738-6.716,2.341-11.005,6.011-11.005,9.818,0,3.932,4.6,7.875,11.6,10.266q.851.289,1.715.536-.281,1.125-.5,2.265c-1.327,6.988-.291,12.536,3.007,14.438,3.406,1.964,9.122-.055,14.688-4.92q.66-.577,1.324-1.22.835.806,1.715,1.565c5.391,4.639,10.716,6.513,14.011,4.606,3.4-1.97,4.508-7.93,3.072-15.182q-.164-.831-.38-1.7.6-.178,1.18-.368c7.272-2.409,12-6.3,12-10.289,0-3.82-4.427-7.515-11.279-9.873Z" transform="translate(-10.421 -9.875)" fill="#8989a2"/>
    <path id="Path_685" data-name="Path 685" d="M72.765,57.324c-.347.115-.7.226-1.065.333a63.6,63.6,0,0,0-3.212-8.036A63.577,63.577,0,0,0,71.575,41.7c.649.188,1.279.386,1.886.6,5.87,2.021,9.451,5.009,9.451,7.311,0,2.452-3.867,5.636-10.146,7.717ZM70.16,62.487a22.947,22.947,0,0,1,.3,8.372c-.378,2.037-1.138,3.394-2.077,3.938-2,1.157-6.275-.347-10.885-4.314q-.793-.682-1.6-1.454a63.683,63.683,0,0,0,5.317-6.752,63.261,63.261,0,0,0,8.592-1.324q.194.783.343,1.535ZM43.812,74.6c-1.953.69-3.509.709-4.449.167-2-1.154-2.833-5.609-1.7-11.585q.2-1.059.463-2.106a63.724,63.724,0,0,0,8.549,1.238,65.944,65.944,0,0,0,5.445,6.728q-.591.571-1.209,1.113a22.952,22.952,0,0,1-7.1,4.446Zm-9.15-17.288a22.957,22.957,0,0,1-7.4-3.93C25.69,52.031,24.9,50.693,24.9,49.607c0-2.31,3.444-5.256,9.188-7.259q1.081-.375,2.183-.687a64.992,64.992,0,0,0,3.092,8.012,65.98,65.98,0,0,0-3.13,8.126Q35.439,57.573,34.662,57.309ZM37.729,36.43c-1.192-6.093-.4-10.689,1.592-11.842,2.122-1.229,6.815.523,11.761,4.915.316.281.634.575.952.879a64.941,64.941,0,0,0-5.4,6.687,66.217,66.217,0,0,0-8.465,1.316q-.243-.972-.436-1.955Zm27.363,6.757q-.93-1.607-1.929-3.172c2.024.255,3.963.6,5.784,1.011a57.809,57.809,0,0,1-2.03,5.462q-.879-1.669-1.825-3.3ZM53.934,32.318a57.957,57.957,0,0,1,3.733,4.507q-3.747-.177-7.5,0c1.232-1.625,2.495-3.135,3.765-4.5ZM42.7,43.205q-.933,1.619-1.791,3.28C40.123,44.614,39.448,42.774,38.9,41c1.81-.405,3.74-.736,5.751-.987q-1.01,1.575-1.945,3.2Zm2,16.194a57.7,57.7,0,0,1-5.846-.94c.56-1.809,1.25-3.688,2.056-5.6q.861,1.662,1.8,3.282.957,1.652,1.992,3.258Zm9.3,7.689c-1.284-1.386-2.565-2.919-3.817-4.568q1.822.072,3.711.072,1.94,0,3.829-.085A57.629,57.629,0,0,1,54.009,67.089ZM66.943,52.762a57.554,57.554,0,0,1,2.13,5.58,57.512,57.512,0,0,1-5.918,1.009q1.006-1.594,1.948-3.228.957-1.66,1.84-3.361Zm-4.187,2.007q-1.441,2.5-3.043,4.91c-1.882.134-3.827.2-5.809.2s-3.894-.061-5.743-.181q-1.643-2.4-3.1-4.918-1.45-2.5-2.706-5.111,1.252-2.607,2.7-5.114h0q1.444-2.506,3.076-4.9c1.887-.143,3.821-.217,5.776-.217s3.9.075,5.787.219q1.614,2.385,3.056,4.88t2.735,5.09q-1.271,2.615-2.726,5.135Zm5.59-30.262c2.124,1.225,2.95,6.165,1.616,12.644q-.131.633-.285,1.261a64.919,64.919,0,0,0-8.482-1.34,63.661,63.661,0,0,0-5.362-6.692q.713-.687,1.459-1.338c4.683-4.076,9.06-5.685,11.055-4.535Z" transform="translate(-17.364 -16.802)" fill="#fff"/>
    <path id="Path_686" data-name="Path 686" d="M113.709,94.665a5.665,5.665,0,1,1-5.665,5.665,5.665,5.665,0,0,1,5.665-5.665" transform="translate(-77.169 -67.524)" fill="#8989a2"/>
  </g>
</svg>
