<svg id="Shake" xmlns="http://www.w3.org/2000/svg" width="86.531" height="29.986" viewBox="0 0 86.531 29.986">
  <path id="Fill-30" d="M7338.439-217.464h15.2a5.133,5.133,0,0,0,4.656-2.563,4.875,4.875,0,0,0-.647-5.378l-8.806-10.567a1.377,1.377,0,0,1,.173-1.918l8.965-7.469,1.136,1.226-8.523,7.422,8.459,10.142a6.719,6.719,0,0,1,.979,7.186,6.678,6.678,0,0,1-6.218,3.68l-15.373.015a.881.881,0,0,1-.884-.88v-.016a.881.881,0,0,1,.884-.881" transform="translate(-7336.292 245.674)" fill="#8989a2" fill-rule="evenodd"/>
  <path id="Fill-32" d="M7340.334-218.346l15.451-2.846a2.19,2.19,0,0,0,1.625-1.447,2.185,2.185,0,0,0-.394-2.138c-3.646-4.387-7.276-8.743-10.922-13.145a1.749,1.749,0,0,1-.363-1.541,1.759,1.759,0,0,1,1.025-1.211l13.606-5.881.489,1.73-12.974,5.629a.259.259,0,0,0-.173.2.282.282,0,0,0,.063.267c3.551,4.261,7.07,8.491,10.623,12.752a3.888,3.888,0,0,1,.773,3.947,3.8,3.8,0,0,1-2.92,2.595l-12.216,2.248Z" transform="translate(-7338.377 246.571)" fill="#8989a2" fill-rule="evenodd"/>
  <path id="Fill-34" d="M7360.6-244.857l-15.452,2.846a2.117,2.117,0,0,0-1.625,1.447,2.19,2.19,0,0,0,.395,2.138c3.646,4.387,7.276,8.743,10.922,13.13a1.791,1.791,0,0,1,.363,1.557,1.8,1.8,0,0,1-1.025,1.211l-13.606,5.881-.489-1.73,12.974-5.629a.323.323,0,0,0,.173-.2.325.325,0,0,0-.063-.267c-7.7-9.23-3.819-4.591-10.622-12.752a3.888,3.888,0,0,1-.773-3.947,3.78,3.78,0,0,1,2.921-2.595l15.31-2.846Z" transform="translate(-7338.188 246.618)" fill="#8989a2" fill-rule="evenodd"/>
  <path id="Fill-36" d="M7354.71-244.84h-15.2a5.172,5.172,0,0,0-4.656,2.547,4.931,4.931,0,0,0,.664,5.393l8.807,10.567a1.364,1.364,0,0,1-.19,1.918l-8.948,7.469-1.137-1.226,8.507-7.422-8.444-10.142a6.72,6.72,0,0,1-.978-7.186,6.67,6.67,0,0,1,6.2-3.68l15.373-.016a.894.894,0,0,1,.9.88v.016a.894.894,0,0,1-.9.881" transform="translate(-7332.503 246.617)" fill="#8989a2" fill-rule="evenodd"/>
  <path id="Fill-38" d="M7347.988-157.908l-8.159,6.809-1.137-1.227,7.465-6.51Z" transform="translate(-7337.146 180.771)" fill="#8989a2" fill-rule="evenodd"/>
  <path id="Fill-40" d="M7351.635-150.436l-11.064,4.78-.489-1.73,10.59-4.591Z" transform="translate(-7338.188 175.626)" fill="#8989a2" fill-rule="evenodd"/>
  <path id="Fill-42" d="M7340.335-140.509l12.374-2.28.473,1.745-9.154,1.7Z" transform="translate(-7338.378 168.734)" fill="#8989a2" fill-rule="evenodd"/>
  <path id="Fill-44" d="M7338.439-133.728h12.8a7.249,7.249,0,0,1,.221,1.761l-13.021.016a.881.881,0,0,1-.884-.88v-.016a.881.881,0,0,1,.884-.881" transform="translate(-7336.292 161.937)" fill="#8989a2" fill-rule="evenodd"/>
  <path id="Fill-46" d="M7501.054-210.462a5.826,5.826,0,0,0-.426-.723l-3.173-5.095,3.6-5.582-4.277-.016c-.111.031-2.873,4.717-3.236,5.315v-9.56c-.41-.031-3.251-.047-3.6.016v15.661c.742-.015,3.14.031,3.6-.015l.016-5.283c.11.11,2.936,4.969,3.062,5.283Zm10.323-4.765a6.165,6.165,0,0,0-.553-4.324,5.035,5.035,0,0,0-2.857-2.248,6.143,6.143,0,0,0-4.373.22,5.7,5.7,0,0,0-3.077,6.793c.694,2.767,3.046,4.183,5.744,4.481a9.977,9.977,0,0,0,4.467-.456v-2.563h-2.936a5.014,5.014,0,0,1-2.73-.645,2.043,2.043,0,0,1-.963-1.258Zm-7.372-2.374a1.848,1.848,0,0,1,1.973-1.808,1.694,1.694,0,0,1,1.8,1.808Zm-21.717-1.368a.756.756,0,0,1,.188.016c1.216.031,2.368.566,2.494,1.714a10.352,10.352,0,0,0-4.813.692,3.053,3.053,0,0,0-1.831,3.507,3.5,3.5,0,0,0,3.74,2.814,3.681,3.681,0,0,0,3.125-1.4l.553,1.179h2.683l-.062-6.164c-.016-1.51-.094-2.673-1.01-3.711-1.468-1.682-3.946-2.076-6.267-1.62a10.055,10.055,0,0,0-2.051.661v2.311Zm2.682,5.535c-.331.582-2.746,1.038-3.029-.2-.364-1.635,2.556-1.541,3.029-1.384Zm-29.057,2.107c.1.189.458.314.664.409a7.99,7.99,0,0,0,2.351.613c2.257.267,4.593-.142,5.777-2.154a3.437,3.437,0,0,0,.111-3.161c-1.168-2.186-4.782-1.824-5.509-2.532a.556.556,0,0,1,.032-.755,2.378,2.378,0,0,1,1.736-.377h3.488v-1.73c-.094-.22-1.042-.566-1.341-.676a7.74,7.74,0,0,0-5.16.063,3.513,3.513,0,0,0-1.689,5.173c1.009,1.321,2.494,1.415,4.23,1.824.457.11,1.246.236,1.2.771-.079.739-1.562.8-2.178.818h-3.709Zm13.952-6.746a2.89,2.89,0,0,1,1.974-.9c1.61-.016,1.941,1.054,1.941,2.28l-.016.991v5.252h3.6c.015-2.264,0-4.513.031-6.777a6.539,6.539,0,0,0-.489-3.208,3.615,3.615,0,0,0-3.314-1.666,4.634,4.634,0,0,0-3.741,1.666v-5.708h-3.6v15.693h3.6Z" transform="translate(-7424.98 231.265)" fill="#8989a2" fill-rule="evenodd"/>
</svg>
