<svg xmlns="http://www.w3.org/2000/svg" width="54" height="32.361" viewBox="0 0 54 32.361">
  <path id="sky-4" d="M23.486.724A.676.676,0,0,0,22.728,0h-2.67a1.636,1.636,0,0,0-1.814,1.824V24.693a.683.683,0,0,0,.764.726h2.664a1.636,1.636,0,0,0,1.814-1.826V.724ZM54,8.438c0-.429-.317-.641-.749-.641h-3.24a1.107,1.107,0,0,0-1.177.755L44.266,18.69,37.9,8.658A1.721,1.721,0,0,0,36.143,7.8h-3.85a2.025,2.025,0,0,0-1.7.722L23.809,15.8l6.079,8.866a1.329,1.329,0,0,0,1.176.748H34.69c.543,0,.859-.218.859-.674a1.193,1.193,0,0,0-.316-.715l-5.344-7.912,4.053-4.366,8.011,11.842-3.536,7.481a1.763,1.763,0,0,0-.216.647c0,.433.318.641.751.641h3.215a1.1,1.1,0,0,0,1.176-.752L53.788,9.086A1.635,1.635,0,0,0,54,8.438M6.523,13.893c-1.065-.24-1.4-.541-1.4-1.078,0-.418.331-.751,1.291-.751h7.773a1.632,1.632,0,0,0,1.819-1.813V8.558a.678.678,0,0,0-.723-.761h-9.1C2.126,7.8,0,10.149,0,13.14c0,2.664,1.636,4.286,4.91,5.014l5.224,1.169c1.062.235,1.392.54,1.392,1.084,0,.412-.329.745-1.286.745h-8.1A1.63,1.63,0,0,0,.316,22.965v1.69a.679.679,0,0,0,.719.764H9.924c4.8,0,6.731-2.35,6.731-5.133,0-2.876-1.657-4.5-4.908-5.223Z" fill="#8989a2"/>
</svg>
