<svg xmlns="http://www.w3.org/2000/svg" width="144.623" height="38.004" viewBox="0 0 144.623 38.004">
  <g id="Tonkean" transform="translate(-6398.67 -376.555)">
    <path id="Path_671" data-name="Path 671" d="M6824.562,429.019l-6.555,6.157,7.068,8.124c-1.751,0-3.268.03-4.782-.03-.249-.01-.515-.389-.718-.642-1.808-2.243-3.6-4.5-5.62-6.707v7.308h-3.7V422.484h3.632v12.179l.289.157c.478-.531.951-1.067,1.434-1.593,1.227-1.334,2.444-2.678,3.7-3.985a1.689,1.689,0,0,1,.994-.541c1.336-.062,2.677-.025,4.016-.025Z" transform="translate(-328.612 -36.67)" fill="#8989a2"/>
    <path id="Path_672" data-name="Path 672" d="M7046.417,465.856V451.283h3.5v1.957l.374.269a1.672,1.672,0,0,1,.174-.559,5.575,5.575,0,0,1,6.4-1.9,5.384,5.384,0,0,1,3.572,5.216c.037,3.152.009,6.305.009,9.589-1.119,0-2.154.046-3.178-.038-.211-.017-.541-.515-.547-.8-.046-2.184-.024-4.368-.027-6.553,0-.4-.006-.807-.029-1.209-.133-2.351-1.066-3.461-2.908-3.468a3.456,3.456,0,0,0-3.6,3.54c-.093,2.45-.084,4.906-.037,7.358.018.909-.21,1.281-1.167,1.186C7048.13,465.791,7047.293,465.856,7046.417,465.856Z" transform="translate(-517.162 -59.206)" fill="#8989a2"/>
    <path id="Path_673" data-name="Path 673" d="M6727.873,465.991H6724.3V451.483h3.446c.038.686.074,1.331.124,2.211a5.489,5.489,0,0,1,3.948-2.677c3.735-.435,6.359,1.794,6.452,5.57.071,2.888,0,5.779.026,8.668.005.615-.2.837-.815.812-.933-.038-1.868-.01-2.948-.01,0-.514.006-.936,0-1.358-.043-2.684-.05-5.369-.153-8.051a2.553,2.553,0,0,0-2.022-2.582,3.076,3.076,0,0,0-3.612,1.349,7.428,7.428,0,0,0-.837,3.137C6727.792,461,6727.873,463.449,6727.873,465.991Z" transform="translate(-259.986 -59.407)" fill="#8989a2"/>
    <path id="Path_674" data-name="Path 674" d="M6585.836,431.516H6583.4V428.73h2.619c0-1.716,0-3.313,0-4.911,0-1.305,0-1.305,1.309-1.307,2.377,0,2.376,0,2.378,2.356q0,1.714.019,3.428a1.593,1.593,0,0,0,.117.362h3.656v2.827h-3.721c-.027.47-.067.855-.068,1.24,0,1.915-.029,3.832.025,5.746.053,1.867.771,2.428,2.636,2.194.295-.037.594-.049.866-.071.045.079.075.108.076.138.08,2.71.736,2.8-2.474,2.863-3.235.065-4.776-1.435-4.878-4.664-.065-2.082-.036-4.166-.056-6.249C6585.9,432.322,6585.862,431.964,6585.836,431.516Z" transform="translate(-147.487 -36.692)" fill="#8989a2"/>
    <path id="Path_675" data-name="Path 675" d="M6425.686,392.51c-.182.155-.254.213-.322.276q-.342.318-.683.638a3.862,3.862,0,0,1-.528-.808c-.252-.728-.4-1.493-.658-2.218a10.678,10.678,0,0,0-2.217-4.028c-1,2.392-1,2.392-1.521,2.647a43.025,43.025,0,0,0-.781-4.407c-.407-1.459-1.08-2.844-1.69-4.4l-1.192,2.106c-.517-1.23-.871-2.275-1.384-3.235a5.449,5.449,0,0,0-2.218-2.527c-.2,5.153-2.757,8.834-7.035,10.152l-.539-1.93a9.5,9.5,0,0,0-2.868,4.414c-.526,1.647-.9,3.342-1.355,5.044l-.6-.279a16.526,16.526,0,0,0-1.381,5.459c-.662,7.632,5.632,15.053,12.924,15.143a13.031,13.031,0,0,0,8.957-2.991C6426.6,406.432,6426.984,399.748,6425.686,392.51Zm-7.322,15.935a2.148,2.148,0,0,0-1.389,1.251,5.153,5.153,0,0,1-5.393,2.847,4.845,4.845,0,0,1-4.049-4.608,1.417,1.417,0,0,0-.525-.932,4.869,4.869,0,0,1-2.248-5.294,4.79,4.79,0,0,1,3.74-3.905,4.6,4.6,0,0,1,5.267,1.971c.077.106.164.206.246.309l.1-.283a16.693,16.693,0,0,1,3.8-.234,4.2,4.2,0,0,1,3.46,4.032A4.664,4.664,0,0,1,6418.363,408.445Z" fill="#8989a2"/>
    <path id="Path_676" data-name="Path 676" d="M6896.8,458.184c-.044-3.9-2.321-6.718-5.891-7.3-4.079-.67-7.888,1.384-9.09,4.982-1.527,4.569.665,9.6,6.288,10.323,3.067.394,5.791-.2,7.99-2.778a17.106,17.106,0,0,1-1.611-.958,1.538,1.538,0,0,0-1.886-.027,8.019,8.019,0,0,1-2.839.874,4.089,4.089,0,0,1-4.565-3.671h11.6C6896.8,459.052,6896.806,458.618,6896.8,458.184Zm-11.532-1.116a3.114,3.114,0,0,1,1.755-2.9,4.163,4.163,0,0,1,4.48-.092,3.15,3.15,0,0,1,1.523,3Z" transform="translate(-385.369 -59.24)" fill="#8989a2"/>
    <path id="Path_677" data-name="Path 677" d="M6977.815,456.36a4.4,4.4,0,0,0-3.675-4.153,17.3,17.3,0,0,0-4.957-.208,7.263,7.263,0,0,0-4.377,2.082l1.871,2.117c.384-.258.653-.457.938-.629a5.508,5.508,0,0,1,5.182-.608,2.173,2.173,0,0,1,1.469,2.735c-.448.025-.914.055-1.379.078-2.417.12-4.852.212-7,1.518a3.991,3.991,0,0,0-.125,6.862,7.008,7.008,0,0,0,4.327,1.008,6,6,0,0,0,4.394-2.129c.051.7.086,1.184.125,1.72h3.545C6978.054,463.24,6978.052,459.792,6977.815,456.36Zm-4.8,7.4a4.286,4.286,0,0,1-4.4.3,1.618,1.618,0,0,1-.213-2.815,3.834,3.834,0,0,1,1.608-.766c1.4-.228,2.831-.316,4.354-.47C6974.561,461.659,6974.258,462.946,6973.012,463.756Z" transform="translate(-451.26 -60.168)" fill="#8989a2"/>
    <path id="Path_678" data-name="Path 678" d="M6645.372,451.182c-5.039-.133-8.432,2.881-8.522,7.571a7.9,7.9,0,0,0,15.8.1A7.43,7.43,0,0,0,6645.372,451.182Zm3.249,9.348a3.96,3.96,0,0,1-4.932,2.979c-1.875-.486-3.066-2.361-3.053-4.806.018-3.264,2.381-5.29,5.272-4.52C6648.2,454.793,6649.4,457.6,6648.621,460.53Z" transform="translate(-190.161 -59.579)" fill="#8989a2"/>
    <path id="Path_679" data-name="Path 679" d="M6480.775,511.8c.4-.433.646-.917,1-1.021a1.453,1.453,0,0,1,1.219.306c.269.266.262.81.423,1.407Z" transform="translate(-65.553 -107.133)" fill="#8989a2"/>
    <path id="Path_680" data-name="Path 680" d="M6449.286,505.462c-.01-.924.375-1.418,1.239-1.389.8.027,1.193.481,1.1,1.389Z" transform="translate(-40.412 -101.81)" fill="#8989a2"/>
  </g>
</svg>
