<svg xmlns="http://www.w3.org/2000/svg" width="16" height="16" viewBox="0 0 16 16">
  <g id="twitter-3" transform="translate(-126.176 -2.014)">
    <circle id="Ellipse_19" data-name="Ellipse 19" cx="8" cy="8" r="8" transform="translate(126.176 2.014)" fill="#2daae1"/>
    <path id="Path_691" data-name="Path 691" d="M242.31,144.3a4.175,4.175,0,0,1-1.2.329,2.1,2.1,0,0,0,.92-1.157,4.179,4.179,0,0,1-1.328.508,2.092,2.092,0,0,0-3.618,1.431,2.116,2.116,0,0,0,.054.477,5.939,5.939,0,0,1-4.311-2.185,2.094,2.094,0,0,0,.647,2.792,2.082,2.082,0,0,1-.947-.261v.026a2.092,2.092,0,0,0,1.678,2.051,2.081,2.081,0,0,1-.551.073,2.123,2.123,0,0,1-.394-.037,2.094,2.094,0,0,0,1.954,1.452,4.211,4.211,0,0,1-3.1.866,5.948,5.948,0,0,0,9.157-5.011q0-.136-.006-.271A4.262,4.262,0,0,0,242.31,144.3Z" transform="translate(-103.036 -137.452)" fill="#fff"/>
  </g>
</svg>
